# AST/ASF file generated using VICON BodyLanguage
# -----------------------------------------------
:version 1.10
:name VICON
:units
  mass 1.0
  length 0.45
  angle deg
:documentation
   .ast/.asf automatically generated from VICON data using
   VICON BodyBuilder and BodyLanguage model FoxedUp or BRILLIANT.MOD
:root
   order TX TY TZ RX RY RZ
   axis XYZ
   position 0 0 0  
   orientation 0 0 0 
:bonedata
  begin
     id 1 
     name lhipjoint
     direction 0.690799 -0.707083 0.151096 
     length 2.54797 
     axis 0 0 0  XYZ
  end
  begin
     id 2 
     name lfemur
     direction 0.34202 -0.939693 0  
     length 7.21646  
     axis 0 0 20  XYZ
    dof rx ry rz
    limits (-160.0 20.0)
           (-70.0 70.0)
           (-60.0 70.0)
  end
  begin
     id 3 
     name ltibia
     direction 0.34202 -0.939693 0   
     length 8.16759   
     axis 0 0 20   XYZ
    dof rx
    limits (-10.0 170.0)
  end
  begin
     id 4 
     name lfoot
     direction 0.0487203 -0.133858 0.989802   
     length 1.93375   
     axis -90 7.62852e-016 20   XYZ
    dof rx rz
    limits (-45.0 90.0)
           (-70.0 20.0)
  end
  begin
     id 5 
     name ltoes
     direction 1.53453e-011 -4.21783e-011 1   
     length 0.979747   
     axis -90 7.62852e-016 20   XYZ
    dof rx
    limits (-90.0 20.0)
  end
  begin
     id 6 
     name rhipjoint
     direction -0.694693 -0.703425 0.150315   
     length 2.56122  
     axis 0 0 0  XYZ 
  end
  begin
     id 7 
     name rfemur
     direction -0.34202 -0.939693 0   
     length 7.36786   
     axis 0 0 -20   XYZ
    dof rx ry rz
    limits (-160.0 20.0)
           (-70.0 70.0)
           (-70.0 60.0)
  end
  begin
     id 8 
     name rtibia
     direction -0.34202 -0.939693 0   
     length 8.07288   
     axis 0 0 -20   XYZ
    dof rx
    limits (-10.0 170.0)
 end
 begin
     id 9 
     name rfoot
     direction -0.0428397 -0.117701 0.992125   
     length 1.88295  
     axis -90 -7.62852e-016 -20   XYZ
    dof rx rz
    limits (-45.0 90.0)
           (-20.0 70.0)
  end
  begin
     id 10 
     name rtoes
     direction -1.53456e-011 -4.2187e-011 1   
     length 0.955578   
     axis -90 -7.62852e-016 -20   XYZ
    dof rx
    limits (-90.0 20.0)
  end
  begin
     id 11 
     name lowerback
     direction 0.0288145 0.999398 -0.0193241   
     length 1.92149   
     axis 0 0 0   XYZ
    dof rx ry rz
    limits (-20.0 45.0)
           (-30.0 30.0)
           (-30.0 30.0)
  end
  begin
     id 12 
     name upperback
     direction 0.0233784 0.998099 0.0570278   
     length 1.90435   
     axis 0 0 0   XYZ
    dof rx ry rz
    limits (-20.0 45.0)
           (-30.0 30.0)
           (-30.0 30.0)
  end
  begin
     id 13 
     name thorax
     direction 0.0096694 0.997833 0.0650817   
     length 1.9111   
     axis 0 0 0   XYZ
    dof rx ry rz
    limits (-20.0 45.0)
           (-30.0 30.0)
           (-30.0 30.0)
  end
  begin
     id 14 
     name lowerneck
     direction 0.00516803 0.999916 0.0118722   
     length 1.74664   
     axis 0 0 0   XYZ
    dof rx ry rz
    limits (-20.0 45.0)
           (-30.0 30.0)
           (-30.0 30.0)
  end
  begin
     id 15 
     name upperneck
     direction -0.0510851 0.996117 -0.071696   
     length 1.68498   
     axis 0 0 0   XYZ
    dof rx ry rz
    limits (-20.0 45.0)
           (-30.0 30.0)
           (-30.0 30.0)
  end
  begin
     id 16
     name head
     direction -0.019188 0.999436 -0.0275702  
     length 1.83483  
     axis 0 0 0   XYZ
    dof rx ry rz
    limits (-20.0 45.0)
           (-30.0 30.0)
           (-30.0 30.0)
  end
  begin
     id 17 
     name lclavicle
     direction 0.967006 0.248456 -0.0562957  
     length 3.39395  
     axis 0 0 0   XYZ
    dof ry rz
    limits (-20.0 10.0)
           (0.0 20.0)
  end
  begin
     id 18 
     name lhumerus
     direction 1 -4.48962e-011 -5.62711e-019   
     length 5.24318   
     axis 180 -30 -90   XYZ
    dof rx ry rz
    limits (-60.0 90.0)
           (-90.0 90.0)
           (-90.0 90.0)
  end
  begin
     id 19
     name lradius
     direction 1 -4.48966e-011 7.90625e-027   
     length 2.98999   
     axis 180 -30 -90   XYZ
    dof rx
    limits (-10.0 170.0)
  end
  begin
     id 20
     name lwrist
     direction 1 -4.48959e-011 1.61068e-026   
     length 1.49499   
     axis -9.31229e-015 90 90   XYZ
    dof ry
    limits (-180.0 0.0)
 end
  begin
     id 21 
     name lhand
     direction 1 -4.49017e-011 3.22136e-026   
     length 0.726745   
     axis -2.0555e-014 90 90   XYZ
    dof rx rz
    limits (-90.0 90.0)
           (-45.0 45.0)
  end
  begin
     id 22 
     name lfingers
     direction 1 -4.4898e-011 6.44272e-026   
     length 0.58592   
     axis -4.11101e-014 90 90   XYZ
    dof rx
    limits (0.0 90.0)
  end
  begin
     id 23
     name lthumb
     direction 0.707107 -6.34922e-011 0.707107   
     length 0.841268   
     axis -90 45 2.85299e-015   XYZ
    dof rx rz
    limits (-45.0 45.0)
           (-45.0 45.0)
  end
  begin
     id 24 
     name rclavicle
     direction -0.972232 0.230238 0.0419005   
     length 3.40416  
     axis 0 0 0   XYZ 
    dof ry rz
    limits (-10.0 20.0)
           (-20.0 0.0)
  end
  begin
     id 25 
     name rhumerus
     direction -1 -4.48976e-011 2.48487e-027  
     length 5.37045   
     axis 180 30 90   XYZ
    dof rx ry rz
    limits (-90.0 60.0)
           (-90.0 90.0)
           (-90.0 90.0)
  end
  begin
     id 26 
     name rradius
     direction -1 -4.48942e-011 7.87951e-027   
     length 2.92792   
     axis 180 30 90   XYZ
    dof rx
    limits (-10.0 170.0)
  end
  begin
     id 27 
     name rwrist
     direction -1 -4.48969e-011 1.61068e-026   
     length 1.46396   
     axis -9.31229e-015 -90 -90   XYZ
    dof ry
    limits (-180.0 0.0)
  end
  begin
     id 28
     name rhand
     direction -1 -4.49043e-011 3.22136e-026   
     length 0.784497   
     axis -2.0555e-014 -90 -90   XYZ
    dof rx rz
    limits (-90.0 90.0)
           (-45.0 45.0)
  end
  begin
     id 29
     name rfingers
     direction -1 -4.48823e-011 6.44272e-026   
     length 0.632482   
     axis -4.11101e-014 -90 -90   XYZ
    dof rx
    limits (0.0 90.0)
  end
  begin
     id 30
     name rthumb
     direction -0.707107 -6.34923e-011 0.707107   
     length 0.908121   
     axis -90 -45 -2.85299e-015   XYZ
    dof rx rz
    limits (-45.0 45.0)
           (-45.0 45.0)
  end
:hierarchy
  begin
    root lhipjoint rhipjoint lowerback
    lhipjoint lfemur
    lfemur ltibia
    ltibia lfoot
    lfoot ltoes
    rhipjoint rfemur
    rfemur rtibia
    rtibia rfoot
    rfoot rtoes
    lowerback upperback
    upperback thorax
    thorax lowerneck lclavicle rclavicle
    lowerneck upperneck
    upperneck head
    lclavicle lhumerus
    lhumerus lradius
    lradius lwrist
    lwrist lhand lthumb
    lhand lfingers
    rclavicle rhumerus
    rhumerus rradius
    rradius rwrist
    rwrist rhand rthumb
    rhand rfingers
  end

#!OML:ASF E:\Style6\Style6.ASF
:FULLY-SPECIFIED
:DEGREES
853
root 0.380787 15.6507 0.0488128 14.1211 0.817391 -2.45898
lowerback 5.97157 -0.239216 3.89692
upperback -6.8433 0.61768 5.35202
thorax -10.7396 0.254038 3.49303
lowerneck -6.02112 10.9403 9.99995
upperneck 25.4881 16.0678 -8.05024
head 10.6439 7.62924 -2.58427
rclavicle -4.37326e-015 -3.97569e-014
rhumerus 3.44211 -40.7786 21.1796
rradius 56.9808
rwrist 31.3659
rhand 27.2865 0.698915
rfingers 7.12502
rthumb 51.2516 -19.841
lclavicle -4.37326e-015 -3.97569e-014
lhumerus -45.6612 -65.632 51.2751
lradius 46.8245
lwrist 13.5095
lhand 6.80528 9.58562
lfingers 7.12502
lthumb 32.0903 36.7734
rfemur -49.6167 -22.1997 26.482
rtibia 68.239
rfoot -24.5716 12.7884
rtoes 0.531827
lfemur -51.1064 14.4129 -19.0581
ltibia 70.6316
lfoot -28.4982 -4.24661
ltoes -22.5137
854
root 0.383795 15.6503 0.0492871 14.1307 0.848106 -2.47083
lowerback 5.97906 -0.219472 3.82464
upperback -6.78709 0.640714 5.43116
thorax -10.6838 0.274908 3.61424
lowerneck -6.09908 10.9386 9.97421
upperneck 25.5828 16.0916 -8.11527
head 10.7004 7.62702 -2.59417
rclavicle 1.72943e-014 -3.49861e-014
rhumerus 3.3929 -40.8067 21.2921
rradius 56.915
rwrist 31.3434
rhand 27.2879 0.345425
rfingers 7.12502
rthumb 51.2529 -20.1937
lclavicle 1.72943e-014 -3.49861e-014
lhumerus -44.9544 -65.9458 50.1985
lradius 46.6016
lwrist 13.4391
lhand 6.97474 9.71356
lfingers 7.12502
lthumb 32.2517 36.8687
rfemur -49.6174 -22.2284 26.4916
rtibia 68.2271
rfoot -24.5998 12.8028
rtoes 0.39115
lfemur -51.127 14.3859 -19.0531
ltibia 70.6407
lfoot -28.4822 -4.26016
ltoes -22.4416
855
root 0.38715 15.6519 0.0501495 14.1269 0.847365 -2.55368
lowerback 5.95138 -0.18191 3.84655
upperback -6.70992 0.692117 5.49158
thorax -10.5835 0.301093 3.65612
lowerneck -6.14598 10.9155 9.92708
upperneck 25.6309 16.0679 -8.12025
head 10.7208 7.6089 -2.58935
rclavicle 1.08338e-014 -1.74931e-014
rhumerus 3.30619 -40.9023 21.3718
rradius 56.8429
rwrist 31.3559
rhand 27.3158 0.22829
rfingers 7.12502
rthumb 51.2783 -20.2965
lclavicle 1.08338e-014 -1.74931e-014
lhumerus -44.2989 -66.3524 49.105
lradius 46.4786
lwrist 13.4123
lhand 6.84598 9.57084
lfingers 7.12502
lthumb 32.1291 36.7508
rfemur -49.594 -22.2161 26.568
rtibia 68.1972
rfoot -24.6154 12.7583
rtoes 0.279509
lfemur -51.1164 14.4026 -18.9658
ltibia 70.6491
lfoot -28.4767 -4.31442
ltoes -22.3006
856
root 0.390918 15.652 0.0526772 14.1631 0.865602 -2.60425
lowerback 5.89412 -0.128802 3.87505
upperback -6.68894 0.762698 5.50611
thorax -10.5281 0.333916 3.64332
lowerneck -6.21529 10.8659 9.97557
upperneck 25.7632 16.0013 -8.13119
head 10.7821 7.5769 -2.60548
rclavicle 2.88238e-015 -3.81667e-014
rhumerus 3.0783 -40.8735 21.5418
rradius 56.7922
rwrist 31.3081
rhand 27.2728 0.355883
rfingers 7.12502
rthumb 51.2392 -20.1911
lclavicle 2.88238e-015 -3.81667e-014
lhumerus -43.7542 -66.9067 48.1442
lradius 46.3775
lwrist 13.2706
lhand 6.69398 9.46113
lfingers 7.12502
lthumb 31.9844 36.6702
rfemur -49.6056 -22.2291 26.625
rtibia 68.1638
rfoot -24.6274 12.6579
rtoes -0.166398
lfemur -51.144 14.3871 -18.9218
ltibia 70.6486
lfoot -28.4683 -4.30466
ltoes -22.4058
857
root 0.395321 15.6545 0.0553522 14.1536 0.903826 -2.58631
lowerback 5.90226 -0.109188 3.86318
upperback -6.705 0.788289 5.48831
thorax -10.5516 0.346467 3.62757
lowerneck -6.0935 10.8079 10.1943
upperneck 25.83 15.9427 -8.27857
head 10.8116 7.55902 -2.70593
rclavicle 8.24956e-015 -5.40694e-014
rhumerus 2.90336 -40.6752 21.6378
rradius 56.8187
rwrist 31.3236
rhand 27.316 0.405942
rfingers 7.12502
rthumb 51.2786 -20.1187
lclavicle 8.24956e-015 -5.40694e-014
lhumerus -43.4995 -67.4763 47.3761
lradius 46.3409
lwrist 12.7604
lhand 6.78081 9.40554
lfingers 7.12502
lthumb 32.067 36.598
rfemur -49.5592 -22.28 26.5846
rtibia 68.1322
rfoot -24.6223 12.7299
rtoes -0.318868
lfemur -51.1022 14.3355 -18.9485
ltibia 70.6141
lfoot -28.5032 -4.21284
ltoes -22.6728
858
root 0.398834 15.6552 0.0563577 14.1357 0.92198 -2.58271
lowerback 5.92704 -0.0969154 3.85129
upperback -6.74485 0.809935 5.50258
thorax -10.6129 0.358696 3.64882
lowerneck -5.72655 10.7557 10.3403
upperneck 25.7381 15.9081 -8.42961
head 10.73 7.55799 -2.80876
rclavicle 1.19271e-015 -3.18055e-014
rhumerus 2.85719 -40.4201 21.659
rradius 56.8791
rwrist 31.4829
rhand 27.4305 0.651052
rfingers 7.12502
rthumb 51.3827 -19.8142
lclavicle 1.19271e-015 -3.18055e-014
lhumerus -43.4123 -67.9672 46.8169
lradius 46.2849
lwrist 12.0712
lhand 6.81712 9.29219
lfingers 7.12502
lthumb 32.1016 36.4777
rfemur -49.5111 -22.2977 26.5565
rtibia 68.1044
rfoot -24.566 12.8086
rtoes 0.0228264
lfemur -51.079 14.3278 -18.9574
ltibia 70.5979
lfoot -28.4971 -4.28653
ltoes -22.4633
859
root 0.401727 15.6572 0.057366 14.1291 0.920665 -2.58521
lowerback 5.98008 -0.0468412 3.83562
upperback -6.77652 0.886443 5.54117
thorax -10.6851 0.399116 3.69065
lowerneck -5.51936 10.7017 10.2158
upperneck 25.7029 15.8445 -8.36244
head 10.6516 7.53384 -2.7886
rclavicle -1.20265e-014 3.02153e-014
rhumerus 2.75316 -40.2097 21.8296
rradius 56.9189
rwrist 31.6482
rhand 27.6343 0.368678
rfingers 7.12502
rthumb 51.568 -19.9901
lclavicle -1.20265e-014 3.02153e-014
lhumerus -43.2146 -68.5247 46.3157
lradius 46.24
lwrist 11.4305
lhand 6.80724 9.21228
lfingers 7.12502
lthumb 32.0922 36.3997
rfemur -49.4838 -22.2797 26.5355
rtibia 68.0824
rfoot -24.5515 12.8196
rtoes 0.158584
lfemur -51.0522 14.337 -18.9711
ltibia 70.5686
lfoot -28.5055 -4.13153
ltoes -23.1115
860
root 0.406942 15.66 0.0597463 14.1221 0.939668 -2.60814
lowerback 6.02093 -0.0303434 3.83603
upperback -6.76055 0.915556 5.58859
thorax -10.6946 0.415639 3.73792
lowerneck -5.56904 10.7068 10.1554
upperneck 25.837 15.852 -8.29228
head 10.7001 7.53493 -2.75009
rclavicle 2.45499e-014 -2.22639e-014
rhumerus 2.78612 -40.2503 21.8167
rradius 56.7741
rwrist 31.6978
rhand 27.4814 -0.218806
rfingers 7.12502
rthumb 51.429 -20.6576
lclavicle 2.45499e-014 -2.22639e-014
lhumerus -43.1279 -69.0417 45.9042
lradius 46.2304
lwrist 10.8872
lhand 6.71626 9.21293
lfingers 7.12502
lthumb 32.0056 36.4178
rfemur -49.4409 -22.2891 26.5211
rtibia 68.0534
rfoot -24.4078 13.0496
rtoes 1.32889
lfemur -51.011 14.3277 -18.9548
ltibia 70.5326
lfoot -28.5113 -4.11385
ltoes -23.3008
861
root 0.41187 15.6656 0.0621591 14.0846 0.943315 -2.51138
lowerback 6.07948 -0.0292843 3.69925
upperback -6.71697 0.904661 5.60316
thorax -10.6821 0.421781 3.8316
lowerneck -5.63049 10.7167 10.1517
upperneck 25.9617 15.8702 -8.27522
head 10.7589 7.54021 -2.73652
rclavicle -4.37326e-015 9.22361e-014
rhumerus 2.87175 -40.4401 21.7161
rradius 56.5507
rwrist 31.6973
rhand 27.1959 0.249249
rfingers 7.12502
rthumb 51.1692 -20.3373
lclavicle -4.37326e-015 9.22361e-014
lhumerus -43.1031 -69.4678 45.514
lradius 46.2956
lwrist 10.3674
lhand 6.76892 9.19892
lfingers 7.12502
lthumb 32.0557 36.3937
rfemur -49.3662 -22.3589 26.3824
rtibia 68.0271
rfoot -24.4181 12.9884
rtoes 0.86978
lfemur -50.9091 14.2851 -19.0589
ltibia 70.4666
lfoot -28.4909 -4.25091
ltoes -22.7956
862
root 0.415375 15.6707 0.0641572 14.0743 0.98131 -2.47351
lowerback 6.05887 -0.0101762 3.60532
upperback -6.67489 0.919303 5.64143
thorax -10.6249 0.438083 3.92194
lowerneck -5.60403 10.6717 10.0779
upperneck 25.9816 15.808 -8.23192
head 10.7433 7.51031 -2.72104
rclavicle 2.28602e-015 3.18055e-015
rhumerus 2.78069 -40.461 21.8034
rradius 56.5307
rwrist 31.7733
rhand 27.216 0.741563
rfingers 7.12502
rthumb 51.1875 -19.8346
lclavicle 2.28602e-015 3.18055e-015
lhumerus -43.0578 -70.0111 45.1779
lradius 46.4321
lwrist 10.0532
lhand 6.84394 9.18917
lfingers 7.12502
lthumb 32.1271 36.3695
rfemur -49.3176 -22.4079 26.3264
rtibia 67.9913
rfoot -24.4126 12.9734
rtoes 0.810106
lfemur -50.867 14.2327 -19.0998
ltibia 70.4158
lfoot -28.4411 -4.39414
ltoes -22.4207
